<svg width="24" height="24" viewBox="0 0 24 24" fill="none" xmlns="http://www.w3.org/2000/svg">
<path d="M12 5.5C12 5.10218 12.158 4.72064 12.4393 4.43934C12.7206 4.15804 13.1022 4 13.5 4C13.8978 4 14.2794 4.15804 14.5607 4.43934C14.842 4.72064 15 5.10218 15 5.5V6C15 6.26522 15.1054 6.51957 15.2929 6.70711C15.4804 6.89464 15.7348 7 16 7H19C19.2652 7 19.5196 7.10536 19.7071 7.29289C19.8946 7.48043 20 7.73478 20 8V11C20 11.2652 19.8946 11.5196 19.7071 11.7071C19.5196 11.8946 19.2652 12 19 12H18.5C18.1022 12 17.7206 12.158 17.4393 12.4393C17.158 12.7206 17 13.1022 17 13.5C17 13.8978 17.158 14.2794 17.4393 14.5607C17.7206 14.842 18.1022 15 18.5 15H19C19.2652 15 19.5196 15.1054 19.7071 15.2929C19.8946 15.4804 20 15.7348 20 16V19C20 19.2652 19.8946 19.5196 19.7071 19.7071C19.5196 19.8946 19.2652 20 19 20H16C15.7348 20 15.4804 19.8946 15.2929 19.7071C15.1054 19.5196 15 19.2652 15 19V18.5C15 18.1022 14.842 17.7206 14.5607 17.4393C14.2794 17.158 13.8978 17 13.5 17C13.1022 17 12.7206 17.158 12.4393 17.4393C12.158 17.7206 12 18.1022 12 18.5V19C12 19.2652 11.8946 19.5196 11.7071 19.7071C11.5196 19.8946 11.2652 20 11 20H8C7.73478 20 7.48043 19.8946 7.29289 19.7071C7.10536 19.5196 7 19.2652 7 19V16C7 15.7348 6.89464 15.4804 6.70711 15.2929C6.51957 15.1054 6.26522 15 6 15H5.5C5.10218 15 4.72064 14.842 4.43934 14.5607C4.15804 14.2794 4 13.8978 4 13.5C4 13.1022 4.15804 12.7206 4.43934 12.4393C4.72064 12.158 5.10218 12 5.5 12H6C6.26522 12 6.51957 11.8946 6.70711 11.7071C6.89464 11.5196 7 11.2652 7 11V8C7 7.73478 7.10536 7.48043 7.29289 7.29289C7.48043 7.10536 7.73478 7 8 7H11C11.2652 7 11.5196 6.89464 11.7071 6.70711C11.8946 6.51957 12 6.26522 12 6V5.5Z" fill="#84919A"/>
</svg>
