<svg width="32" height="32" viewBox="0 0 32 32" fill="none" xmlns="http://www.w3.org/2000/svg">
<path fill-rule="evenodd" clip-rule="evenodd" d="M17.4897 9.17C17.1097 7.61 14.8898 7.61 14.5098 9.17C14.453 9.40442 14.3417 9.62213 14.185 9.80541C14.0282 9.9887 13.8304 10.1324 13.6076 10.2248C13.3848 10.3172 13.1434 10.3556 12.9029 10.3371C12.6624 10.3185 12.4297 10.2435 12.2238 10.118C10.8518 9.282 9.28175 10.852 10.1177 12.224C10.6577 13.11 10.1788 14.266 9.17075 14.511C7.60975 14.89 7.60975 17.111 9.17075 17.489C9.40523 17.5458 9.62298 17.6572 9.80626 17.8141C9.98955 17.971 10.1332 18.1689 10.2255 18.3918C10.3178 18.6147 10.3561 18.8563 10.3374 19.0968C10.3187 19.3373 10.2434 19.5701 10.1177 19.776C9.28175 21.148 10.8518 22.718 12.2238 21.882C12.4297 21.7563 12.6624 21.6811 12.9029 21.6623C13.1435 21.6436 13.385 21.682 13.6079 21.7743C13.8308 21.8666 14.0288 22.0102 14.1857 22.1935C14.3426 22.3768 14.4539 22.5945 14.5107 22.829C14.8898 24.39 17.1108 24.39 17.4888 22.829C17.5457 22.5946 17.6572 22.377 17.8142 22.1939C17.9711 22.0107 18.169 21.8672 18.3918 21.7749C18.6147 21.6826 18.8561 21.6442 19.0966 21.6628C19.3371 21.6815 19.5698 21.7565 19.7758 21.882C21.1477 22.718 22.7178 21.148 21.8818 19.776C21.7563 19.57 21.6812 19.3373 21.6626 19.0969C21.644 18.8564 21.6824 18.6149 21.7747 18.3921C21.8669 18.1692 22.0105 17.9713 22.1936 17.8144C22.3768 17.6575 22.5944 17.546 22.8288 17.489C24.3898 17.11 24.3898 14.889 22.8288 14.511C22.5943 14.4542 22.3765 14.3428 22.1932 14.1859C22.01 14.029 21.8663 13.8311 21.774 13.6082C21.6817 13.3853 21.6434 13.1437 21.6621 12.9032C21.6808 12.6627 21.7561 12.4299 21.8818 12.224C22.7178 10.852 21.1477 9.282 19.7758 10.118C19.5698 10.2437 19.3371 10.3189 19.0966 10.3377C18.856 10.3564 18.6145 10.318 18.3916 10.2257C18.1687 10.1334 17.9707 9.9898 17.8138 9.80651C17.6569 9.62323 17.5456 9.40548 17.4888 9.171L17.4897 9.17ZM15.9998 19C16.7954 19 17.5585 18.6839 18.1211 18.1213C18.6837 17.5587 18.9998 16.7956 18.9998 16C18.9998 15.2044 18.6837 14.4413 18.1211 13.8787C17.5585 13.3161 16.7954 13 15.9998 13C15.2041 13 14.441 13.3161 13.8784 13.8787C13.3158 14.4413 12.9998 15.2044 12.9998 16C12.9998 16.7956 13.3158 17.5587 13.8784 18.1213C14.441 18.6839 15.2041 19 15.9998 19Z" fill="#5B6871"/>
</svg>
