<svg width="14" height="16" viewBox="0 0 14 16" fill="none" xmlns="http://www.w3.org/2000/svg">
<path d="M13 -4.37114e-08C13.2652 -3.21184e-08 13.5196 0.105357 13.7071 0.292893C13.8946 0.48043 14 0.734784 14 1L14 3C14 3.26522 13.8946 3.51957 13.7071 3.70711C13.5196 3.89464 13.2652 4 13 4L1 4C0.734783 4 0.480429 3.89464 0.292892 3.70711C0.105356 3.51957 -1.42727e-07 3.26522 -1.31134e-07 3L-4.37114e-08 0.999999C-3.21184e-08 0.734783 0.105356 0.480429 0.292892 0.292893C0.480429 0.105356 0.734783 -5.79841e-07 1 -5.68248e-07L13 -4.37114e-08ZM13 6C13.2652 6 13.5196 6.10536 13.7071 6.29289C13.8946 6.48043 14 6.73478 14 7L14 9C14 9.26522 13.8946 9.51957 13.7071 9.70711C13.5196 9.89464 13.2652 10 13 10L1 10C0.734783 10 0.480428 9.89464 0.292892 9.70711C0.105356 9.51957 -4.04995e-07 9.26522 -3.93402e-07 9L-3.0598e-07 7C-2.94387e-07 6.73478 0.105356 6.48043 0.292892 6.29289C0.480428 6.10536 0.734783 6 1 6L13 6ZM14 13C14 12.7348 13.8946 12.4804 13.7071 12.2929C13.5196 12.1054 13.2652 12 13 12L0.999999 12C0.734783 12 0.480428 12.1054 0.292892 12.2929C0.105356 12.4804 -5.56655e-07 12.7348 -5.68248e-07 13L-6.55671e-07 15C-6.67264e-07 15.2652 0.105356 15.5196 0.292892 15.7071C0.480428 15.8946 0.734782 16 0.999999 16L13 16C13.2652 16 13.5196 15.8946 13.7071 15.7071C13.8946 15.5196 14 15.2652 14 15L14 13Z" fill="#00B2EA"/>
</svg>
