<svg width="24" height="24" viewBox="0 0 24 24" fill="none" xmlns="http://www.w3.org/2000/svg">
<path d="M10.2929 4.29289C10.4804 4.10536 10.7348 4 11 4H13C13.2652 4 13.5196 4.10536 13.7071 4.29289C13.8946 4.48043 14 4.73478 14 5C14 5.26522 13.8946 5.51957 13.7071 5.70711C13.5196 5.89464 13.2652 6 13 6H11C10.7348 6 10.4804 5.89464 10.2929 5.70711C10.1054 5.51957 10 5.26522 10 5C10 4.73478 10.1054 4.48043 10.2929 4.29289Z" fill="#84919A"/>
<path fill-rule="evenodd" clip-rule="evenodd" d="M6.58579 5.58579C6.21071 5.96086 6 6.46957 6 7V18C6 18.5304 6.21071 19.0391 6.58579 19.4142C6.96086 19.7893 7.46957 20 8 20H16C16.5304 20 17.0391 19.7893 17.4142 19.4142C17.7893 19.0391 18 18.5304 18 18V7C18 6.46957 17.7893 5.96086 17.4142 5.58579C17.0391 5.21071 16.5304 5 16 5C16 5.79565 15.6839 6.55871 15.1213 7.12132C14.5587 7.68393 13.7956 8 13 8H11C10.2044 8 9.44129 7.68393 8.87868 7.12132C8.31607 6.55871 8 5.79565 8 5C7.46957 5 6.96086 5.21071 6.58579 5.58579ZM15.9877 12.0036C15.99 12.2658 15.8892 12.5184 15.707 12.707L11.707 16.707C11.5195 16.8945 11.2652 16.9998 11 16.9998C10.7348 16.9998 10.4805 16.8945 10.293 16.707L8.293 14.707C8.11084 14.5184 8.01005 14.2658 8.01233 14.0036C8.0146 13.7414 8.11977 13.4906 8.30518 13.3052C8.49059 13.1198 8.7414 13.0146 9.0036 13.0123C9.2658 13.01 9.5184 13.1108 9.707 13.293L11 14.586L14.293 11.293C14.4816 11.1108 14.7342 11.01 14.9964 11.0123C15.2586 11.0146 15.5094 11.1198 15.6948 11.3052C15.8802 11.4906 15.9854 11.7414 15.9877 12.0036Z" fill="#84919A"/>
</svg>
