<svg width="32" height="32" viewBox="0 0 32 32" fill="none" xmlns="http://www.w3.org/2000/svg">
<path d="M16 8C14.4087 8 12.8826 8.63214 11.7574 9.75736C10.6322 10.8826 10 12.4087 10 14V17.586L9.29303 18.293C9.15322 18.4329 9.05802 18.611 9.01945 18.805C8.98088 18.9989 9.00068 19.2 9.07635 19.3827C9.15202 19.5654 9.28016 19.7215 9.44457 19.8314C9.60898 19.9413 9.80228 20 10 20H22C22.1978 20 22.3911 19.9413 22.5555 19.8314C22.7199 19.7215 22.848 19.5654 22.9237 19.3827C22.9994 19.2 23.0192 18.9989 22.9806 18.805C22.942 18.611 22.8468 18.4329 22.707 18.293L22 17.586V14C22 12.4087 21.3679 10.8826 20.2427 9.75736C19.1175 8.63214 17.5913 8 16 8ZM16 24C15.2044 24 14.4413 23.6839 13.8787 23.1213C13.3161 22.5587 13 21.7956 13 21H19C19 21.7956 18.684 22.5587 18.1214 23.1213C17.5587 23.6839 16.7957 24 16 24Z" fill="#5B6871"/>
</svg>
