<svg width="32" height="32" viewBox="0 0 32 32" fill="none" xmlns="http://www.w3.org/2000/svg">
<path d="M11 9C10.4696 9 9.96086 9.21071 9.58579 9.58579C9.21071 9.96086 9 10.4696 9 11V13C9 13.5304 9.21071 14.0391 9.58579 14.4142C9.96086 14.7893 10.4696 15 11 15H13C13.5304 15 14.0391 14.7893 14.4142 14.4142C14.7893 14.0391 15 13.5304 15 13V11C15 10.4696 14.7893 9.96086 14.4142 9.58579C14.0391 9.21071 13.5304 9 13 9H11ZM11 17C10.4696 17 9.96086 17.2107 9.58579 17.5858C9.21071 17.9609 9 18.4696 9 19V21C9 21.5304 9.21071 22.0391 9.58579 22.4142C9.96086 22.7893 10.4696 23 11 23H13C13.5304 23 14.0391 22.7893 14.4142 22.4142C14.7893 22.0391 15 21.5304 15 21V19C15 18.4696 14.7893 17.9609 14.4142 17.5858C14.0391 17.2107 13.5304 17 13 17H11ZM17 11C17 10.4696 17.2107 9.96086 17.5858 9.58579C17.9609 9.21071 18.4696 9 19 9H21C21.5304 9 22.0391 9.21071 22.4142 9.58579C22.7893 9.96086 23 10.4696 23 11V13C23 13.5304 22.7893 14.0391 22.4142 14.4142C22.0391 14.7893 21.5304 15 21 15H19C18.4696 15 17.9609 14.7893 17.5858 14.4142C17.2107 14.0391 17 13.5304 17 13V11ZM17 19C17 18.4696 17.2107 17.9609 17.5858 17.5858C17.9609 17.2107 18.4696 17 19 17H21C21.5304 17 22.0391 17.2107 22.4142 17.5858C22.7893 17.9609 23 18.4696 23 19V21C23 21.5304 22.7893 22.0391 22.4142 22.4142C22.0391 22.7893 21.5304 23 21 23H19C18.4696 23 17.9609 22.7893 17.5858 22.4142C17.2107 22.0391 17 21.5304 17 21V19Z" fill="#5B6871"/>
</svg>
